<?xml version="1.0" standalone="no"?><!DOCTYPE svg PUBLIC "-//W3C//DTD SVG 1.1//EN" "http://www.w3.org/Graphics/SVG/1.1/DTD/svg11.dtd"><svg t="1506590512917" class="icon" style="" viewBox="0 0 1024 1024" version="1.1" xmlns="http://www.w3.org/2000/svg" p-id="10787" xmlns:xlink="http://www.w3.org/1999/xlink" width="200" height="200"><defs><style type="text/css"></style></defs><path d="M419.391301 894.688889c-8.523117 0-16.998139-3.40761-23.139-10.144034-80.554664-88.508823-210.849172-89.36533-213.539444-89.36533l-0.191358 0c-16.998139 0-30.875195-13.456477-30.996968-30.141484-0.13303-16.768919 13.5629-30.438243 30.624485-30.624485 6.438643-0.334621 160.338778-0.181125 260.311701 109.659539 11.404748 12.510942 10.288321 31.714306-2.472308 42.901089C434.103374 892.136763 426.728406 894.688889 419.391301 894.688889L419.391301 894.688889zM627.08255 894.629537c-7.523347 0-15.083533-2.673899-21.054525-8.113795-12.552897-11.393491-13.32447-30.630624-1.680269-42.932812C707.881784 733.897809 858.655719 734.019583 864.600105 734.264153c17.131169 0.181125 30.848589 13.913894 30.662347 30.688953-0.186242 16.678868-13.998829 30.077016-30.970362 30.077016l-0.24457 0 0 0c-2.573615 0-130.235157 0.823761-214.261898 89.848331C643.713322 891.376447 635.381563 894.629537 627.08255 894.629537L627.08255 894.629537zM572.484048 740.096998l-98.148367 0c-3.1262 0-6.16235-0.457418-9.049097-1.339508-104.773252-13.1853-193.814194-72.829725-251.203252-168.468946-66.61928-111.083981-81.890079-255.016091-37.941124-358.167403 4.736884-11.090593 15.700587-18.412348 27.972075-18.656919l9.320273-0.090051c58.995649 0 114.098641 10.937097 164.241668 32.570813 36.234249-64.987107 77.609589-114.301256 123.232672-146.872069 2.413979-2.068102 5.167696-3.801583 8.235568-5.077645l0 0c9.56996-4.067642 20.693298-3.189645 29.449729 2.402723 1.520633 0.973164 2.945075 2.068102 4.247744 3.28072 45.740764 32.93204 85.97307 81.517595 122.398678 147.876955 51.131541-22.665209 107.500363-34.149774 168.048367-34.149774l9.474792 0.090051c12.271488 0.24457 23.234167 7.560186 27.966958 18.656919 43.954071 103.177917 28.710902 247.110027-37.96773 358.188892-57.390082 95.586009-146.398278 155.267273-251.144924 168.474063C578.67812 739.612974 575.641971 740.096998 572.484048 740.096998L572.484048 740.096998zM479.844138 679.33103l87.126336 0c0.648776-0.127913 1.324158-0.212848 2.009773-0.302899 111.9937-12.218276 176.225607-82.675978 210.391754-139.582035 52.30732-87.237877 68.166519-201.236234 41.157375-285.156552-56.368822 1.796926-108.027365 15.349593-153.708777 40.386826-7.465019 4.067642-16.296151 4.923126-24.372084 2.488681-8.118911-2.488681-14.84408-8.172123-18.587334-15.673981-31.401174-63.015196-65.072041-109.383246-102.422717-140.980895-37.377282 31.534204-71.788 78.236875-102.513792 139.183969-3.743254 7.411807-10.373255 13.005198-18.422581 15.492856-8.055466 2.520403-16.726963 1.675152-24.159236-2.275833-44.719504-23.851221-95.170546-36.824697-150.024875-38.5899-27.004027 83.925435-11.148921 197.918675 41.157375 285.124829 34.166147 56.906058 98.361215 127.338177 210.328309 139.582035C478.482117 679.118182 479.162616 679.203116 479.844138 679.33103L479.844138 679.33103zM523.176039 921.15568c-17.098423 0-30.970362-13.58439-30.970362-30.386054L492.205677 709.710944c0-16.801664 13.871939-30.379914 30.970362-30.379914 17.093307 0 30.970362 13.579273 30.970362 30.379914l0 181.058682C554.119795 907.571291 540.269345 921.15568 523.176039 921.15568L523.176039 921.15568zM523.176039 921.15568" p-id="10788" fill="#cdcdcd"></path></svg>