<?xml version="1.0" standalone="no"?><!DOCTYPE svg PUBLIC "-//W3C//DTD SVG 1.1//EN" "http://www.w3.org/Graphics/SVG/1.1/DTD/svg11.dtd"><svg t="1506590074062" class="icon" style="" viewBox="0 0 1024 1024" version="1.1" xmlns="http://www.w3.org/2000/svg" p-id="10186" xmlns:xlink="http://www.w3.org/1999/xlink" width="128" height="128"><defs><style type="text/css"></style></defs><path d="M932.571429 128 91.428571 128c-40.321829 0-73.142857 32.821029-73.142857 73.142857l0 640c0 40.321829 32.821029 73.142857 73.142857 73.142857l841.142857 0c40.321829 0 73.142857-32.821029 73.142857-73.142857L1005.714286 201.142857C1005.714286 160.821029 972.893257 128 932.571429 128zM91.428571 841.142857 91.428571 201.142857l841.142857 0 0 128L658.285714 329.142857c-100.821943 0-182.857143 82.0352-182.857143 182.857143s82.0352 182.857143 182.857143 182.857143l274.357029 0 0 146.285714L91.428571 841.142857zM932.608 402.285714l0 219.428571L658.285714 621.714286c-60.500114 0-109.714286-49.214171-109.714286-109.714286s49.214171-109.714286 109.714286-109.714286L932.608 402.285714z" p-id="10187" fill="#cdcdcd"></path><path d="M603.428571 512c0 30.321371 24.535771 54.857143 54.857143 54.857143s54.857143-24.535771 54.857143-54.857143-24.535771-54.857143-54.857143-54.857143S603.428571 481.678629 603.428571 512z" p-id="10188" fill="#cdcdcd"></path></svg>