<?xml version="1.0" standalone="no"?><!DOCTYPE svg PUBLIC "-//W3C//DTD SVG 1.1//EN" "http://www.w3.org/Graphics/SVG/1.1/DTD/svg11.dtd"><svg t="1506671187439" class="icon" style="" viewBox="0 0 1024 1024" version="1.1" xmlns="http://www.w3.org/2000/svg" p-id="83958" xmlns:xlink="http://www.w3.org/1999/xlink" width="200" height="200"><defs><style type="text/css"></style></defs><path d="M884.752095 601.175582c80.38195-133.858987 98.736682-307.294564 45.771633-431.630593a37.400646 37.400646 0 0 0-33.688741-22.501827l-11.442908-0.102397c-72.95814 0-140.898807 13.849247-202.490837 41.138151-43.90288-79.946761-92.388044-138.518068-147.529038-178.197056a38.296623 38.296623 0 0 0-50.533111-0.742381c-54.987398 39.243799-104.854926 98.685484-148.527413 176.993887-60.414459-26.060135-126.819166-39.243799-197.908553-39.2438l-11.238114 0.127997a37.375047 37.375047 0 0 0-33.71434 22.476227C40.485624 293.778621 58.891554 467.265397 139.145508 601.124383c69.195036 115.248261 176.507499 187.156828 302.73788 203.054022 3.507111 1.049573 7.142218 1.612759 10.905322 1.612759h21.55465v181.57617c0 20.249084 16.690774 36.632666 37.323848 36.632666 20.607475 0 37.27265-16.383582 37.323849-36.632666v-181.57617h22.092236c3.788703 0 7.44941-0.588785 11.00772-1.56156 126.25598-15.897195 233.491646-87.85696 302.661082-203.054022z m-317.867095 131.017459a39.781386 39.781386 0 0 0-2.431938 0.358391h-105.008522a40.600565 40.600565 0 0 0-2.457537-0.358391c-134.934159-14.745224-212.295386-99.658259-253.484736-168.187711-63.025593-105.08532-82.122706-242.502616-49.611535-343.645637 66.123114 2.150345 126.921564 17.765947 180.808189 46.514014a37.810236 37.810236 0 0 0 51.352291-15.948394c36.991057-73.444527 78.487599-129.737492 123.51685-167.752522 45.029252 38.091829 85.604217 93.949604 123.414453 169.902868 4.531084 9.062169 12.620478 15.897195 22.399429 18.892318 9.753351 2.918326 20.40268 1.894352 29.38805-2.995124 55.038597-30.18163 117.296209-46.488415 185.211277-48.664359 32.53677 101.117422 13.414058 238.509118-49.611534 343.671237-41.138151 68.555052-118.524978 153.468087-253.484737 168.21331z" p-id="83959" fill="#bfbfbf"></path><path d="M100.720888 798.930539c-20.581875 0.230394-37.093454 16.690774-36.914259 36.88866 0.153596 20.095488 16.86997 36.325474 37.375047 36.325473h0.204795c3.251117 0 160.277513 1.023974 257.350237 107.696454a37.63104 37.63104 0 0 0 27.903289 12.236488c8.857374 0 17.714748-3.071922 24.805767-9.292563a36.09508 36.09508 0 0 0 2.995124-51.710681C293.893562 798.700145 108.45189 798.52095 100.720888 798.930539zM923.151116 798.725744c-7.167817-0.281593-188.871984-0.435189-313.643202 131.734241a36.09508 36.09508 0 0 0 2.022348 51.736281c7.193417 6.553433 16.306784 9.778951 25.368953 9.778951 10.009345 0 20.044289-3.9167 27.340103-11.750101 101.245418-107.261265 255.123094-108.259639 258.220615-108.259639h0.281593c20.453878 0 37.119053-16.153188 37.349448-36.248676 0.230394-20.197885-16.306784-36.735063-36.939858-36.991057z" p-id="83960" fill="#bfbfbf"></path></svg>