<?xml version="1.0" standalone="no"?><!DOCTYPE svg PUBLIC "-//W3C//DTD SVG 1.1//EN" "http://www.w3.org/Graphics/SVG/1.1/DTD/svg11.dtd"><svg t="1507587517218" class="icon" style="" viewBox="0 0 1032 1024" version="1.1" xmlns="http://www.w3.org/2000/svg" p-id="17312" xmlns:xlink="http://www.w3.org/1999/xlink" width="129" height="128"><defs><style type="text/css"></style></defs><path d="M539.06432 770.95936l-59.7504-2.11968-0.96256-0.11776c-66.68288-7.51104-129.6384-30.98112-182.05184-67.84512-56.81152-39.95648-98.03776-93.8752-119.23456-155.9552-26.24-76.672-22.97856-162.04288-19.86048-244.62336 0.98816-25.79968 1.8944-50.2016 1.8944-73.84064 0-30.2848 25.68192-55.76192 55.70048-55.00416 47.11424 1.22368 84.46976 12.23168 124.27264 30.19776 11.26912-29.17888 27.19744-55.41376 47.46752-78.33088C433.71008 70.03136 474.8288 44.11904 512.24064 44.11904c24.17152 0 50.55488 10.71616 78.3872 31.7952 19.28192 14.58688 39.01952 34.18112 54.15936 53.78048 18.31424 23.67488 31.88736 48.512 41.17504 75.2384 43.0336-18.17088 85.07904-32 135.08096-33.4848h1.57184c14.12608 0 27.60704 5.67808 37.87776 16.01536 10.42944 10.42432 16.36864 24.66304 16.33792 39.07584-0.11776 44.08832-0.93696 88.81152-1.75104 132.08064l-0.52736 29.4656a1833.78432 1833.78432 0 0 0-0.19968 21.22752c-0.29696 41.23136-0.55296 83.82976-14.6176 125.03552-45.94688 134.93248-174.4128 230.00064-319.63136 236.54912l-1.03936 0.06144zM483.1232 717.73696l55.68 1.97632c123.9296-6.02112 233.32352-87.02976 272.43008-201.87136 11.38688-33.34656 11.64288-71.74656 11.90912-108.87168 0.03072-7.13728 0.08704-14.50496 0.2048-21.75488 0.17408-9.87136 0.34816-19.712 0.54784-29.55264 0.78848-43.06432 1.60256-87.58784 1.72544-131.26656 0-0.70144-0.44032-1.83296-1.40288-2.79552-0.69632-0.70144-1.33632-0.96256-1.59744-0.96256-51.16416 1.51552-93.2096 18.6368-142.85312 40.8832l-28.73856 12.86656-6.75328-30.77632c-6.75328-30.80704-19.85536-58.496-40.03328-84.61824-24.61184-31.82592-65.19808-65.65888-91.99104-65.65888-12.13952 0-39.6544 8.0384-87.3216 61.90592-21.51936 24.31488-36.95104 53.48864-45.82912 86.71232l-8.12544 30.42816-28.12928-14.15168c-45.45536-22.8608-81.1776-36.34176-129.37216-37.59104-1.10592 0-3.11296 1.98144-3.11296 3.8144 0 24.63232-0.96256 49.46944-1.95072 75.79136-2.93888 77.89056-6.00064 158.464 17.12128 226.13504 34.52416 101.01248 135.56224 175.26272 257.59232 189.35808z m-84.67456 219.19232a25.62048 25.62048 0 0 1-22.27712-12.928c-32.57856-57.04192-85.57568-130.49856-152.86784-156.5952-27.37152-10.59328-64.23552-12.25728-96.20992-4.36736-19.79904 4.8896-55.03488 17.99168-68.74624 50.6368a25.60512 25.60512 0 1 1-47.232-19.80416c16.56832-39.51104 53.40672-68.10112 103.69024-80.5376 42.28096-10.44992 89.74336-8.0896 126.98624 6.31808 36.57216 14.1824 72.09984 39.89504 105.63584 76.47232 25.79968 28.09856 50.432 62.60224 73.23136 102.49216a25.60512 25.60512 0 0 1-22.21056 38.31296z m235.10016 0a25.63072 25.63072 0 0 1-22.21568-38.31808c22.79936-39.92064 47.43168-74.38848 73.23136-102.49216 33.54624-36.57216 69.0688-62.28992 105.61024-76.47232 37.24288-14.40768 84.736-16.768 127.02208-6.31808 50.28352 12.4416 87.12192 41.03168 103.68512 80.5376a25.60512 25.60512 0 1 1-47.232 19.80416c-13.71648-32.64512-48.9472-45.7472-68.74624-50.6368-31.9744-7.88992-68.83328-6.23104-96.20992 4.36736-67.29216 26.09664-120.28416 99.55328-152.86272 156.5952a25.62048 25.62048 0 0 1-22.28224 12.93312z m-117.54496 42.95168a25.6 25.6 0 0 1-25.63072-25.58976v-208.95232c0-14.15168 11.47392-25.6 25.63072-25.6a25.6 25.6 0 0 1 25.62048 25.6v208.95232a25.6 25.6 0 0 1-25.62048 25.58976z" p-id="17313" fill="#8a8a8a"></path></svg>