<?xml version="1.0" standalone="no"?><!DOCTYPE svg PUBLIC "-//W3C//DTD SVG 1.1//EN" "http://www.w3.org/Graphics/SVG/1.1/DTD/svg11.dtd"><svg t="1507587469303" class="icon" style="" viewBox="0 0 1024 1024" version="1.1" xmlns="http://www.w3.org/2000/svg" p-id="15860" xmlns:xlink="http://www.w3.org/1999/xlink" width="128" height="128"><defs><style type="text/css"></style></defs><path d="M981.333333 128 42.666667 128C19.2 128 0 147.2 0 170.666667l0 682.666667c0 23.466667 19.2 42.666667 42.666667 42.666667l938.666667 0c23.466667 0 42.666667-19.2 42.666667-42.666667L1024 170.666667C1024 147.2 1004.8 128 981.333333 128zM981.333333 810.666667c0 23.466667-19.2 42.666667-42.666667 42.666667L85.333333 853.333333c-23.466667 0-42.666667-19.2-42.666667-42.666667L42.666667 213.333333c0-23.466667 19.2-42.666667 42.666667-42.666667l853.333333 0c23.466667 0 42.666667 19.2 42.666667 42.666667L981.333333 810.666667z" p-id="15861" fill="#8a8a8a"></path><path d="M128 298.666667l768 0 0 42.666667-768 0 0-42.666667Z" p-id="15862" fill="#8a8a8a"></path><path d="M789.333333 512l-170.666667 0c-12.8 0-21.333333 8.533333-21.333333 21.333333l0 128c0 12.8 8.533333 21.333333 21.333333 21.333333l170.666667 0c12.8 0 21.333333-8.533333 21.333333-21.333333l0-128C810.666667 520.533333 802.133333 512 789.333333 512zM768 618.666667c0 12.8-8.533333 21.333333-21.333333 21.333333l-85.333333 0c-12.8 0-21.333333-8.533333-21.333333-21.333333l0-42.666667c0-12.8 8.533333-21.333333 21.333333-21.333333l85.333333 0c12.8 0 21.333333 8.533333 21.333333 21.333333L768 618.666667z" p-id="15863" fill="#8a8a8a"></path></svg>