<?xml version="1.0" standalone="no"?><!DOCTYPE svg PUBLIC "-//W3C//DTD SVG 1.1//EN" "http://www.w3.org/Graphics/SVG/1.1/DTD/svg11.dtd"><svg t="1506480012356" class="icon" style="" viewBox="0 0 1024 1024" version="1.1" xmlns="http://www.w3.org/2000/svg" p-id="10269" xmlns:xlink="http://www.w3.org/1999/xlink" width="200" height="200"><defs><style type="text/css"></style></defs><path d="M964.319334 491.803034l-148.644352-181.524275c-2.744627-3.342131-6.827827-5.289472-11.154534-5.289472L642.530612 304.989286l0-52.116985c0-40.420557-32.85463-73.306624-73.275802-73.306624l-416.942727 0c-40.412058 0-73.276826 32.885965-73.276826 73.306624L79.035257 664.71924c0 40.398131 32.86487 73.272832 73.276826 73.272832l61.125607 0c7.06007 50.899251 50.746778 90.258637 103.552614 90.258637 52.815974 0 96.503808-39.359386 103.575142-90.258637l148.689413 0c24.121344 0 45.489869-11.762893 58.847642-29.798707 11.031654 14.881894 27.529114 25.438413 46.519398 28.680192 6.585242 51.442586 50.548326 91.377152 103.739904 91.377152 52.827238 0 96.504832-39.359386 103.575142-90.258637l12.382512 0c40.400794 0 73.265562-32.875725 73.265562-73.272832l0-40.34487 0-38.362726 0-85.069491C967.582822 497.602048 966.421299 494.370509 964.319334 491.803034zM938.735616 522.276045 762.437335 522.276045c-24.498995 0-44.417434-19.906355-44.417434-44.370534l0-32.132838c0-24.476467 19.918438-44.41559 44.417434-44.41559l90.527422 0 85.76983 104.743526L938.734588 522.276041zM316.989235 799.382221c-41.805824 0-75.821875-34.01472-75.821875-75.829043 0-41.806131 34.016051-75.819827 75.821875-75.819827 41.817088 0 75.834163 34.013696 75.834163 75.819827C392.823398 765.367501 358.807347 799.382221 316.989235 799.382221zM569.253786 709.135872 420.564357 709.135872c-7.06007-50.912563-50.747802-90.248397-103.575142-90.248397-52.815974 0-96.503808 39.335936-103.563878 90.248397l-61.115374 0c-24.500019 0-44.417434-19.929907-44.417434-44.41559L107.892529 252.872265c0-24.510259 19.917414-44.449382 44.417434-44.449382l416.942727 0c24.498995 0 44.417434 19.939123 44.417434 44.449382l0 325.95884 0 85.889159C613.671219 689.205965 593.753702 709.135872 569.253786 709.135872zM778.360627 799.382221c-41.795584 0-75.810611-34.01472-75.810611-75.829043 0-41.806131 34.015027-75.819827 75.810611-75.819827 41.817088 0 75.822899 34.013696 75.822899 75.819827C854.183526 765.367501 820.177715 799.382221 778.360627 799.382221zM938.735616 624.375398l0 40.34487c0 24.486707-19.939942 44.41559-44.417434 44.41559l-12.371256 0c-7.07031-50.912563-50.747802-90.248397-103.586406-90.248397-52.173312 0-95.440486 38.406758-103.286477 88.43305-18.700698-5.233152-32.544563-22.251827-32.544563-42.600243l0-85.889159L642.52948 333.846484l155.150833 0 31.659315 38.65129-66.902407 0c-40.400794 0-73.276826 32.874701-73.276826 73.273856l0 32.132838c0 40.377651 32.876032 73.229824 73.276826 73.229824l176.297299 0 0 34.877345L938.73452 624.375393z" p-id="10270" fill="#cdcdcd"></path></svg>