<?xml version="1.0" standalone="no"?><!DOCTYPE svg PUBLIC "-//W3C//DTD SVG 1.1//EN" "http://www.w3.org/Graphics/SVG/1.1/DTD/svg11.dtd"><svg t="1506505630458" class="icon" style="" viewBox="0 0 1024 1024" version="1.1" xmlns="http://www.w3.org/2000/svg" p-id="10212" xmlns:xlink="http://www.w3.org/1999/xlink" width="200" height="200"><defs><style type="text/css"></style></defs><path d="M764.928 819.2c29.696 0 54.272-24.576 54.272-54.272 0-15.36-6.144-28.672-16.384-37.888L587.776 512l214.016-214.016c10.24-10.24 16.384-23.552 16.384-37.888 0-29.696-24.576-54.272-54.272-54.272-15.36 0-28.672 6.144-37.888 16.384L512 436.224l-215.04-215.04c-10.24-10.24-23.552-16.384-37.888-16.384-29.696 0-54.272 24.576-54.272 54.272 0 15.36 6.144 28.672 16.384 37.888L436.224 512 222.208 724.992c-10.24 10.24-16.384 23.552-16.384 37.888 0 29.696 24.576 54.272 54.272 54.272 15.36 0 28.672-6.144 37.888-16.384L512 587.776l215.04 215.04c9.216 10.24 22.528 16.384 37.888 16.384z" fill="#8a8a8a" p-id="10213"></path></svg>