<?xml version="1.0" standalone="no"?><!DOCTYPE svg PUBLIC "-//W3C//DTD SVG 1.1//EN" "http://www.w3.org/Graphics/SVG/1.1/DTD/svg11.dtd"><svg t="1507587493143" class="icon" style="" viewBox="0 0 1024 1024" version="1.1" xmlns="http://www.w3.org/2000/svg" p-id="16611" xmlns:xlink="http://www.w3.org/1999/xlink" width="128" height="128"><defs><style type="text/css"></style></defs><path d="M1008.274 593.728c-3.372-32.724-20.829-54.61-25.3-59.736l-102.732-141.3L842 309.313c-0.106-0.23-0.215-0.457-0.33-0.683-24.105-47.319-51.162-50.235-59.122-49.969h-43.09c-10.172 0-18.419 8.247-18.419 18.42 0 10.172 8.247 18.42 18.42 18.42H783.055c1.622 0.397 12.522 3.955 25.623 29.524l38.844 84.696a18.384 18.384 0 0 0 1.845 3.152l104.347 143.521c0.476 0.654 0.994 1.276 1.55 1.861 0.138 0.144 13.548 14.832 16.267 38.361v174.71H848.107a18.42 18.42 0 0 0-18.401 19.251c0.051 1.131 0.17 2.086 0.26 2.74-0.383 23.546-19.654 42.584-43.287 42.584-23.634 0-42.906-19.036-43.292-42.578 0.089-0.643 0.208-1.58 0.262-2.688a18.424 18.424 0 0 0-18.398-19.309h-32.88V222.328c0-0.762-0.047-1.523-0.142-2.28l-0.491-3.943c-1.15-9.22-8.986-16.14-18.278-16.14H40.73c-16.039 0-29.087 13.047-29.087 29.086v550.028c0 16.038 13.048 29.086 29.087 29.086h141.022c7.265 36.765 39.756 64.575 78.617 64.575s71.351-27.811 78.616-64.575h195.798c0.326 0 0.599-0.006 0.925-0.022 0.395-0.024 39.746-1.62 63.48 19.268 7.637 6.719 19.277 5.98 25.997-1.66 6.72-7.636 5.978-19.274-1.659-25.995-33.589-29.562-82.888-28.67-89.137-28.429H321.797a18.42 18.42 0 0 0-18.401 19.244c0.051 1.134 0.17 2.093 0.26 2.748-0.383 23.546-19.654 42.584-43.286 42.584s-42.902-19.035-43.288-42.577c0.09-0.641 0.208-1.576 0.261-2.679a18.424 18.424 0 0 0-18.398-19.319H48.482V236.803h607.051v553.213c0 5.048 2.071 9.874 5.73 13.351a18.427 18.427 0 0 0 13.625 5.045l4.839-0.246h28.333c7.266 36.765 39.758 64.575 78.621 64.575 38.862 0 71.352-27.811 78.616-64.575h113.985c16.04 0 29.09-13.048 29.09-29.086V595.616c-0.002-0.63-0.034-1.26-0.098-1.888zM803.815 422.277c2.55 0 5.14-0.533 7.612-1.656 9.26-4.21 13.355-15.13 9.146-24.39l-26.206-57.65c-4.21-9.262-15.13-13.358-24.392-9.147-9.26 4.21-13.355 15.13-9.146 24.39l26.206 57.65c3.087 6.79 9.779 10.803 16.78 10.803z" fill="#8a8a8a" p-id="16612"></path></svg>