<?xml version="1.0" standalone="no"?><!DOCTYPE svg PUBLIC "-//W3C//DTD SVG 1.1//EN" "http://www.w3.org/Graphics/SVG/1.1/DTD/svg11.dtd"><svg t="1506668128763" class="icon" style="" viewBox="0 0 1024 1024" version="1.1" xmlns="http://www.w3.org/2000/svg" p-id="50106" xmlns:xlink="http://www.w3.org/1999/xlink" width="200" height="200"><defs><style type="text/css"></style></defs><path d="M800 256 640 256 640 192 640 128 576 128 64 128 0 128l0 64 0 576 0 64 64 0 64 0c0 70.72 57.28 128 128 128s128-57.28 128-128l192 0 64 0c0 70.72 57.28 128 128 128 70.656 0 128-57.28 128-128l64 0c35.328 0 64-28.672 64-64l0-128L1024 576 1024 510.976 1024 480C1024 356.288 923.712 256 800 256zM256 896c-35.264 0-64-28.736-64-64s28.736-64 64-64 64 28.736 64 64S291.264 896 256 896zM576 256l0 320 0 64 0 128L366.272 768C344.064 729.92 303.232 704 256 704s-88.064 25.92-110.272 64L64 768 64 192l512 0L576 256zM768 896c-35.264 0-64-28.736-64-64s28.736-64 64-64 64 28.736 64 64S803.264 896 768 896zM960 768l-81.728 0c-22.144-38.08-62.976-64-110.272-64-47.232 0-88.064 25.92-110.272 64L640 768l0-128L640 576 640 512 640 320l160 0c77.248 0 141.888 55.04 156.736 128L768 448l0 128 0 64 192 0L960 768zM960 576l-128 0L832 512l128 0L960 576z" p-id="50107" fill="#bfbfbf"></path></svg>