<?xml version="1.0" standalone="no"?><!DOCTYPE svg PUBLIC "-//W3C//DTD SVG 1.1//EN" "http://www.w3.org/Graphics/SVG/1.1/DTD/svg11.dtd"><svg t="1506404854330" class="icon" style="" viewBox="0 0 1024 1024" version="1.1" xmlns="http://www.w3.org/2000/svg" p-id="10915" xmlns:xlink="http://www.w3.org/1999/xlink" width="128" height="128"><defs><style type="text/css"></style></defs><path d="M0 1024h279.272727v-279.272727H0v279.272727z m46.545455-232.727273h186.181818v186.181818H46.545455v-186.181818zM0 651.636364h279.272727V372.363636H0v279.272728z m46.545455-232.727273h186.181818v186.181818H46.545455V418.909091zM279.272727 0H0v279.272727h279.272727V0zM232.727273 232.727273H46.545455V46.545455h186.181818v186.181818zM1024 0h-279.272727v279.272727h279.272727V0z m-46.545455 232.727273h-186.181818V46.545455h186.181818v186.181818zM744.727273 651.636364h279.272727V372.363636h-279.272727v279.272728z m46.545454-232.727273h186.181818v186.181818h-186.181818V418.909091zM744.727273 1024h279.272727v-279.272727h-279.272727v279.272727z m46.545454-232.727273h186.181818v186.181818h-186.181818v-186.181818zM651.636364 0H372.363636v279.272727h279.272728V0z m-46.545455 232.727273H418.909091V46.545455h186.181818v186.181818zM372.363636 1024h279.272728v-279.272727H372.363636v279.272727z m46.545455-232.727273h186.181818v186.181818H418.909091v-186.181818zM372.363636 651.636364h279.272728V372.363636H372.363636v279.272728z m46.545455-232.727273h186.181818v186.181818H418.909091V418.909091z" fill="#ffffff" p-id="10916"></path></svg>