<?xml version="1.0" standalone="no"?><!DOCTYPE svg PUBLIC "-//W3C//DTD SVG 1.1//EN" "http://www.w3.org/Graphics/SVG/1.1/DTD/svg11.dtd"><svg t="1506667687045" class="icon" style="" viewBox="0 0 1024 1024" version="1.1" xmlns="http://www.w3.org/2000/svg" p-id="22189" xmlns:xlink="http://www.w3.org/1999/xlink" width="200" height="200"><defs><style type="text/css"></style></defs><path d="M451.141 880.565c-12.257-16.822-24.515-33.651-37.682-51.717-58.222 22.667-74.41 13.345-81.387-51.578-45.611 12.406-75.66 14.524-83.079-61.46-10.029 2.229-20.989 8.178-29.754 5.855-15.924-4.227-36.438-9.595-44.056-21.51-7.613-11.893-8.953-39.677-0.617-47.891 43.194-42.56 31.385-77.063-5.868-114.851-7.932-8.037-3.901-27.87-5.384-42.272 3.74-1.15 7.488-2.292 11.23-3.441 15.939 19.606 30.658 40.41 48.32 58.312 9.165 9.3 23.226 18.192 35.624 19.017 31.258 2.08 45.749 18.011 46.332 47.025 0.426 21.19 9.827 26.295 29.452 31.225 15.27 3.835 32.622 19.15 38.996 33.756 8.637 19.795 18.576 28.402 39.432 33.117 13.68 3.094 25.524 17.012 36.722 27.638 10.914 10.346 19.011 23.705 30.084 33.833 11.974 10.958 25.53 20.381 39.213 29.198 10.194 6.567 21.451 14.688 32.676 15.42 8.842 0.578 21.267-7.108 26.424-14.896 2.898-4.365-3.396-19.095-9.612-24.449-21.233-18.299-44.86-33.822-66.213-51.994-5.61-4.77-6.31-15.309-9.26-23.198 8.574 0.45 19.226-2.223 25.384 1.87 38.982 25.868 77.149 52.979 115.21 80.202 17.817 12.738 36.237 20.59 51.599-0.597 15.49-21.368 5.513-38.553-14.181-52.512-39.885-28.264-79.827-56.513-118.503-86.375-7.727-5.97-9.9-19.129-14.637-28.98 10.06 1.763 22.117 0.575 29.847 5.79 45.696 30.815 90.375 63.118 135.396 94.927 5.094 3.597 10.008 7.486 15.273 10.812 16.48 10.428 33.425 14.604 46.8-3.694 13.685-18.733 7.821-35.366-9.886-48.345-52.838-38.769-105.811-77.346-158.73-116.002-5.876-4.292-13.153-7.632-17.129-13.278-3.532-5.024-3.384-12.636-4.855-19.11 5.804-1.296 12.388-4.966 17.233-3.368 8.617 2.847 16.565 8.343 24.117 13.683 53.49 37.847 107 75.669 160.085 114.075 20.712 14.983 40.757 22.254 60.563 0.031 16.977-19.056 14.027-41.007-10.049-62.2-88.218-77.682-176.594-155.202-265.81-231.74-35.575-30.52-86.073-14.312-98.855 31.137-11.964 42.532-36.544 72.996-79.632 83.308-15.613 3.731-34.84-0.716-50.409-6.668-7.351-2.812-15.12-18.753-13.831-27.424 4.831-32.418 12.643-64.455 20.719-96.288 4.76-18.756 12.122-36.859 19.775-59.607h-89.095c3.232-31.848 17.453-43.291 45.685-40.624 20.63 1.946 41.863 2.513 62.332-0.125 31.29-4.027 63.406-7.747 92.918-18.048 51.388-17.952 101.498-16.413 153.012-3.363 34.088 8.633 68.963 14.162 102.997 22.953 9.337 2.417 20.659 9.72 24.747 17.931 40.765 81.83 80.35 164.246 119.725 246.76 3.294 6.898 6.458 18.088 3.22 23.156-17.312 27.108-9.93 51.505 0.867 78.759 12.993 32.8-7.313 70.11-43.161 80.539-18.533 5.39-25.91 14.116-30.555 32.003-9.767 37.58-41.131 45.728-74.24 47.885-21.456 55.12-42.504 64.69-98.909 48.517-7.121-2.038-17.022 4.192-25.218 7.596-18.413 7.654-39.618 26.255-54.199 21.93-35.626-10.57-53.34 7.153-72.216 29.347-8.336-0.002-16.664-0.002-24.997-0.002M176.278 143.432c19.851 10.89 39.5 22.173 59.614 32.552 16.809 8.676 21.834 19.997 13.252 37.817-46.649 96.908-92.912 193.996-139.26 291.039-9.007 18.863-23.498 22.588-40.98 13.507-22.852-11.868-45.053-24.998-67.536-37.58v-18.743c27.866-53.755 56.014-107.372 83.515-161.314 26.644-52.251 52.63-104.834 78.903-157.278h12.492m680.915 0c10.256 16.578 21.812 32.492 30.54 49.837 42.46 84.38 83.413 169.524 126.558 253.545 13.821 26.92 8.323 40.815-18.716 53.117-65.705 29.905-65.34 30.81-97.496-34.79-39.752-81.091-79.013-162.418-119.386-243.192-11.562-23.123-9.687-38.367 15.809-49.545 17.583-7.718 33.521-19.177 50.194-28.972h12.497m0 0z" fill="#bfbfbf" p-id="22190"></path></svg>