<?xml version="1.0" standalone="no"?><!DOCTYPE svg PUBLIC "-//W3C//DTD SVG 1.1//EN" "http://www.w3.org/Graphics/SVG/1.1/DTD/svg11.dtd"><svg t="1507587081362" class="icon" style="" viewBox="0 0 1024 1024" version="1.1" xmlns="http://www.w3.org/2000/svg" p-id="13579" xmlns:xlink="http://www.w3.org/1999/xlink" width="128" height="128"><defs><style type="text/css"></style></defs><path d="M457.877847 858.571297c-11.013845-15.113209-22.025643-30.231535-33.851992-46.462195-52.306296 20.364817-66.849524 11.991102-73.118298-46.336328-40.975227 11.147898-67.971068 13.049201-74.635861-55.211463-9.009188 1.997494-18.85544 7.345292-26.730805 5.257747-14.304797-3.795443-32.734542-8.621355-39.578414-19.326161-6.838755-10.68127-8.04114-35.643802-0.552585-43.020816 38.802748-38.236859 28.194132-69.231781-5.273097-103.180987-7.126304-7.218402-3.5038-25.037233-4.837168-37.97387 3.361561-1.033539 6.727215-2.059915 10.088776-3.092431 14.319124 17.61417 27.54331 36.304857 43.409672 52.386114 8.234545 8.354272 20.866237 16.344247 32.003901 17.084097 28.081569 1.870604 41.099047 16.181541 41.624003 42.246173 0.382717 19.037589 8.828063 23.623024 26.458605 28.05087 13.71742 3.445472 29.305443 17.20587 35.031864 30.327726 7.758708 17.784038 16.689101 25.515117 35.423791 29.750581 12.290931 2.778276 22.930245 15.284101 32.991392 24.829502 9.80532 9.29776 17.077957 21.298072 27.027563 30.393217 10.755971 9.845229 22.935362 18.313088 35.225269 26.232454 9.15859 5.90243 19.272949 13.193487 29.356608 13.853519 7.941879 0.51984 19.107173-6.385431 23.737634-13.381775 2.603291-3.922333-3.050476-17.155728-8.633634-21.965268-19.076474-16.437367-40.301891-30.387078-59.484789-46.710858-5.039783-4.284583-5.668093-13.751189-8.319479-20.837584 7.704472 0.402159 17.270339-1.997494 22.803355 1.678222 35.020608 23.240307 69.308529 47.596018 103.502305 72.052013 16.006556 11.44261 32.556487 18.499329 46.354747-0.535189 13.915941-19.198248 4.954849-34.634822-12.739139-47.176462-35.83209-25.39539-71.713298-50.770314-106.458637-77.598332-6.942109-5.364171-8.893554-17.187451-13.148461-26.033933 9.03784 1.586125 19.87056 0.51677 26.811646 5.202489 41.049928 27.682479 81.19116 56.701396 121.635291 85.277222 4.577249 3.230578 8.991792 6.726192 13.721513 9.715269 14.804171 9.368368 30.030967 13.120832 42.042535-3.323699 12.296047-16.825201 7.027044-31.766494-8.880251-43.429115-47.468105-34.830273-95.061053-69.483514-142.600789-104.211457-5.276167-3.854794-11.815093-6.857175-15.387455-11.926634-3.173273-4.514827-3.038196-11.356652-4.361331-17.169031 5.214768-1.162476 11.128455-4.460592 15.480576-3.02387 7.741311 2.557242 14.880919 7.492648 21.665439 12.289907C653.742746 587.268264 701.816648 621.247146 749.50374 655.750985c18.609847 13.456477 36.616966 19.99131 54.410214 0.026606 15.251356-17.118889 12.599969-36.836977-9.027607-55.876612-79.253018-69.787436-158.647253-139.431609-238.797711-208.191646-31.957853-27.41949-77.32511-12.856819-88.809675 27.973098-10.747785 38.210253-32.829709 65.579601-71.538313 74.841545-14.025435 3.351328-31.298843-0.642636-45.285393-5.990434-6.605442-2.526543-13.58439-16.845667-12.426007-24.63712 4.339842-29.122271 11.357675-57.904805 18.61394-86.503143 4.276397-16.84976 10.891048-33.113165 17.765619-53.54859l-80.041988 0c2.904143-28.610618 15.679098-38.890752 41.041742-36.495192 18.534122 1.74883 37.608549 2.257413 55.998385-0.112564 28.109198-3.616364 56.963363-6.958482 83.474157-16.21224 46.166459-16.128329 91.184769-14.745842 137.461745-3.0208 30.623461 7.753591 61.953004 12.720719 92.53144 20.618597 8.385994 2.172479 18.559705 8.732895 22.230304 16.109909 36.622082 73.512271 72.184019 147.554614 107.557668 221.680868 2.957355 6.198166 5.802146 16.250102 2.89391 20.804838-15.553231 24.352641-8.921183 46.269813 0.777713 70.752414 11.670807 29.469172-6.570649 62.98552-38.777165 72.354911-16.648169 4.841262-23.276123 12.681834-27.448142 28.750811-8.771781 33.763988-36.94954 41.081651-66.697051 43.018769-19.272949 49.519834-38.182624 58.117652-88.854701 43.588751-6.398734-1.831718-15.291265 3.764744-22.657023 6.824429-16.540721 6.874571-35.588543 23.586185-48.687886 19.699668-32.002878-9.495258-47.920406 6.423293-64.878636 26.363438C472.844723 858.571297 465.362308 858.571297 457.877847 858.571297L457.877847 858.571297zM210.945875 196.349947c17.83418 9.783831 35.486212 19.919678 53.556777 29.244045 15.099906 7.794523 19.61371 17.963117 11.906168 33.973766C234.500337 346.627579 192.936709 433.848059 151.299403 521.030677c-8.091282 16.943904-21.10876 20.293185-36.814464 12.134365-20.529569-10.661827-40.475853-22.459524-60.673871-33.762965L53.811068 482.563574c25.035186-48.292889 50.322106-96.459912 75.02881-144.918577 23.936155-46.943149 47.279816-94.182033 70.883397-141.294027C203.464483 196.349947 207.207737 196.349947 210.945875 196.349947L210.945875 196.349947zM822.660924 196.349947c9.213849 14.893198 19.596314 29.189809 27.436886 44.770669 38.146808 75.8055 74.93569 152.296615 113.696482 227.779773 12.416797 24.182772 7.476275 36.667108-16.814967 47.718815-59.026348 26.864858-58.699913 27.678386-87.589894-31.253818-35.710316-72.848145-70.980611-145.913231-107.252723-218.47792-10.388605-20.772093-8.701173-34.468023 14.20349-44.51075 15.795754-6.932899 30.114878-17.226337 45.093011-26.02677L822.660924 196.349947 822.660924 196.349947zM822.660924 196.349947" p-id="13580" fill="#8a8a8a"></path></svg>