<?xml version="1.0" standalone="no"?><!DOCTYPE svg PUBLIC "-//W3C//DTD SVG 1.1//EN" "http://www.w3.org/Graphics/SVG/1.1/DTD/svg11.dtd"><svg t="1506480050383" class="icon" style="" viewBox="0 0 1024 1024" version="1.1" xmlns="http://www.w3.org/2000/svg" p-id="11000" xmlns:xlink="http://www.w3.org/1999/xlink" width="200" height="200"><defs><style type="text/css"></style></defs><path d="M297.129746 220.183771l-77.0437-39.523155c-5.007037-2.568499-11.145851-0.592494-13.71435 4.41352L55.25393 479.656361c-2.568499 5.006014-0.592494 11.146874 4.413519 13.71435l77.043701 39.524178c5.006014 2.567475 11.146874 0.591471 13.71435-4.414543l151.118789-294.582225c2.568499-5.006014 0.592494-11.146874-4.414543-13.71435zM972.784036 464.84605L821.664224 170.263825c-2.567475-5.006014-8.707312-6.982018-13.71435-4.41352l-77.041654 39.523156c-4.967128 2.547009-6.944156 8.604982-4.472871 13.587459-8.025791 5.705955-18.672268 14.127765-26.712385 23.602558a16.915251 16.915251 0 0 1-1.582032 0.066515c-12.087293 0-34.82311-8.792247-51.03842-17.479093-11.958356-6.405897-38.551014-13.886265-74.147743-13.886265-31.218002 0-78.595033 5.90857-127.015836 34.057676-12.213159 7.099698-22.835078 13.793144-32.160467 20.302395-42.139749-0.838088-80.782861 2.856048-88.239693 3.620458-11.243065 1.152243-19.421328 11.200086-18.271132 22.443151 1.151219 11.243065 11.208273 19.429515 22.441104 18.276249 11.347442-1.159406 24.873504-2.142803 39.307238-2.758833-15.189957 20.496823-23.922852 44.285622-28.160363 76.680426-3.814886 29.163203-9.147334 40.509622-10.985192 43.703361l-1.496074 0.893347-2.547009 4.074805c-1.37123 2.193968-13.108552 22.033829-3.186575 42.895972 7.955182 16.726963 26.4013 27.010167 54.824652 30.56411a89.181135 89.181135 0 0 0 11.001565 0.697895c26.335808 0 49.082882-12.205996 67.609841-36.280298 11.088546-14.409175 19.410072-31.403221 26.228361-46.864354 12.057617-12.095479 27.496238-23.163559 43.615357-23.163559h0.148379c18.558681 0.077771 31.555693 14.84101 32.532951 15.985066 1.069355 1.38965 2.092661 2.347464 3.492544 3.427052l228.071416 175.781492c5.427616 4.182252 8.900717 10.228969 9.781784 17.024746 0.87902 6.795776-0.939395 13.527085-5.123695 18.9547l-2.521426 3.270487c-4.182252 5.428639-10.228969 8.901741-17.024745 9.781784-6.794753 0.877997-13.528108-0.938372-18.955724-5.122671L594.480015 514.777253c-8.952906-6.900154-21.803585-5.235235-28.703739 3.716648-6.900154 8.952906-5.236258 21.804608 3.716648 28.703739l149.525502 115.243721c0.675382 0.694825 1.387603 1.364067 2.177595 1.972934 5.428639 4.183276 8.901741 10.228969 9.782807 17.024745 0.87902 6.795776-0.939395 13.527085-5.123694 18.955724l-2.520403 3.270487c-8.635681 11.203156-24.775266 13.293771-35.981492 4.659113l-125.972063-97.089245c-8.952906-6.900154-21.804608-5.235235-28.703739 3.716648-6.900154 8.952906-5.236258 21.804608 3.716648 28.703739l111.140263 85.658915a23.443945 23.443945 0 0 1-1.824555 25.965371l-2.39863 3.113921c-7.906064 10.256598-22.684652 12.171204-32.94432 4.26514l-85.975117-66.263169c-8.952906-6.900154-21.803585-5.235235-28.703738 3.716648-6.900154 8.952906-5.236258 21.803585 3.716648 28.703739l80.121805 61.752436-7.40362-2.5378 0.057305-0.163729c-1.309832 3.609201-6.810103 14.519692-14.635325 17.21815-6.451946 2.224668-14.860453-1.720178-20.782326-5.420453-7.208169-4.504594-14.97097-9.822716-23.172769-15.814174l0.452302-1.190105c7.030114-18.47477-2.249227-39.151695-20.727068-46.183855-11.592013-4.41045-24.049742-2.396583-33.461089 4.278443a1541.928013 1541.928013 0 0 1-3.753487-3.230578c3.921309-15.024182-1.222851-31.605835-14.343683-41.608653-11.313673-8.625448-25.77299-10.229992-38.163181-5.535063a2937.869117 2937.869117 0 0 1-5.299703-4.928243c5.395894-16.062837 0.600681-34.477232-13.367449-45.728484-12.008498-9.67229-27.744901-11.58178-41.165562-6.405897-3.295046-3.219321-6.562463-6.421246-9.795087-9.601682 0.783853-13.010315-4.519943-26.191522-15.443737-34.989909-8.448416-6.803963-18.742876-9.769504-28.777417-9.128914-41.211611-41.674145-69.988004-72.281233-70.767763-73.113181-7.733125-8.244778-20.685111-8.658194-28.928866-0.925069-8.243755 7.733125-8.658194 20.684088-0.926093 28.928866 2.978844 3.176342 28.510334 30.335912 65.164139 67.568908l-37.630039 46.722115c-14.433734 17.921161-11.607362 44.151569 6.3138 58.585303 17.921161 14.433734 44.151569 11.607362 58.584279-6.313799l32.07144-39.819914 0.269129 0.262989-30.834262 38.282908c-14.433734 17.921161-11.607362 44.151569 6.313799 58.585304s44.151569 11.607362 58.58428-6.3138l20.427239-25.362644-22.113647 29.006638c-13.290701 17.433044-9.933233 42.340317 7.500834 55.631018 17.433044 13.290701 42.339294 9.933233 55.631018-7.499811l24.16026-31.69077c1.995447 1.706875 3.982708 3.396353 5.960758 5.070482L426.057117 812.608475c-7.030114 18.47477 2.25025 39.151695 20.727067 46.181809 18.475793 7.02909 39.152718-2.249227 46.182832-20.727067l5.581112-14.671141c5.734608 4.01136 11.255345 7.691169 16.522302 10.981099 14.823614 9.265014 27.805276 12.278651 38.424125 12.278651 7.034207 0 13.032828-1.323135 17.841343-3.028986 21.806655-7.737218 33.075303-27.516704 37.425378-37.162388a64.513316 64.513316 0 0 0 15.872502 1.98726c19.312858 0 38.427194-8.626471 51.102889-25.073048l2.398629-3.113921a64.444754 64.444754 0 0 0 12.211113-26.904766 66.789149 66.789149 0 0 0 12.594853 1.207501c19.961634 0 39.71656-8.916067 52.815903-25.91216l2.520403-3.270486c8.888438-11.532661 13.658068-25.332968 13.845333-39.635719 19.886933-0.064468 39.547715-8.973372 52.598962-25.907043l2.520403-3.270487c10.857279-14.086833 15.579837-31.559786 13.295817-49.197492-1.623987-12.535501-6.662747-24.077372-14.490016-33.610492 9.342786-10.162454 16.147772-22.215978 20.194948-35.84437 17.676591-1.939165 43.101657-6.916527 55.866379-19.680224 2.499937-2.499937 4.306072-5.378497 5.568832-8.537444l60.692291-31.135114c5.004991-2.569522 6.982018-8.710382 4.413519-13.716397z" fill="#cdcdcd" p-id="11001"></path></svg>