<?xml version="1.0" standalone="no"?><!DOCTYPE svg PUBLIC "-//W3C//DTD SVG 1.1//EN" "http://www.w3.org/Graphics/SVG/1.1/DTD/svg11.dtd"><svg t="1506404622711" class="icon" style="" viewBox="0 0 1024 1024" version="1.1" xmlns="http://www.w3.org/2000/svg" p-id="10070" xmlns:xlink="http://www.w3.org/1999/xlink" width="128" height="128"><defs><style type="text/css"></style></defs><path d="M421.282227 953.693726a1829.907069 1829.907069 0 0 0 77.156392 60.540228l13.561381 9.766046 13.515097-9.766046c3.980474-2.869644 11.293437-8.284939 21.429759-16.060748a2027.264509 2027.264509 0 0 0 224.711626-200.921353c120.154764-125.292352 204.161273-249.42759 235.866208-367.314409A375.136503 375.136503 0 0 0 1021.130356 332.369553c0-314.318568-286.964383-448.728982-509.361779-211.890797C290.204303-116.405713 2.869644 26.335925 2.869644 332.369553c0 31.658651 4.628458 64.242994 13.561381 97.567891 31.658651 117.88682 115.66516 241.975773 235.866209 367.314409a2034.531188 2034.531188 0 0 0 168.984993 156.441873z" fill="#d81e06" p-id="10071"></path></svg>