<?xml version="1.0" standalone="no"?><!DOCTYPE svg PUBLIC "-//W3C//DTD SVG 1.1//EN" "http://www.w3.org/Graphics/SVG/1.1/DTD/svg11.dtd"><svg t="1506480940722" class="icon" style="" viewBox="0 0 1024 1024" version="1.1" xmlns="http://www.w3.org/2000/svg" p-id="13317" xmlns:xlink="http://www.w3.org/1999/xlink" width="200" height="200"><defs><style type="text/css"></style></defs><path d="M902.225 305.885c-25.529-94.994-101.711-151.023-202.078-150.752-75.512 0.404-143.9 47.026-187.971 128.047C467.568 202.295 396.222 155.269 321.249 155c-101.442 0.806-174.132 55.894-199.258 151.29-6.717 25.395-6.853 52.671-6.988 84.379v2.955c-1.21 171.714 369.762 460.587 385.615 472.816a19.706 19.706 0 0 0 12.093 4.165 20.05 20.05 0 0 0 15.721-7.658c6.717-8.6 5.105-21.095-3.629-27.813-103.19-80.079-370.969-314.942-370.165-441.242v-2.956c0.135-28.888 0.268-53.878 5.778-74.436 27.678-105.071 112.862-121.194 161.098-121.596h0.942c61.001 0 119.448 41.383 156.664 110.983 4.702 8.733 14.511 27.007 33.054 27.007h0.135c18.676 0 28.484-18.946 32.785-27.007 36.947-70.137 93.514-110.579 155.186-110.983h1.209c39.906 0 133.02 12.227 162.309 121.328 5.777 21.498 5.914 47.7 6.182 79.272 0.537 73.764-89.754 195.496-254.211 342.754-8.195 7.255-8.869 19.884-1.613 28.082 7.391 8.196 19.885 8.869 28.082 1.613 122.404-109.64 268.186-263.212 267.379-373.657-0.135-33.188-0.268-61.807-7.391-88.408v-0.003h-0.001z" fill="#cdcdcd" p-id="13318"></path><path d="M263.876 359.763H237.81v168.354h86.931v-25.396h-60.865V359.763z m201.408 7.525c-13.705-7.659-28.888-11.555-45.147-11.555-15.451 0-30.231 3.896-43.666 11.689-13.571 7.794-24.32 18.676-32.112 32.247-7.794 13.571-11.689 28.752-11.689 44.741 0 15.72 4.031 30.5 11.824 43.937 7.794 13.571 18.811 24.32 32.381 31.979 13.571 7.658 28.618 11.555 44.608 11.555 15.855 0 30.635-3.896 44.206-11.689 13.571-7.794 24.453-18.542 32.112-32.112 7.793-13.571 11.688-28.484 11.688-44.206 0-15.988-4.03-30.902-11.824-44.472-7.658-13.572-18.676-24.32-32.38-32.112l-0.001-0.002z m17.734 76.585c0 18.272-5.913 32.918-18.005 44.876-12.092 11.958-26.605 17.736-44.205 17.736-16.93 0-31.171-5.913-43.399-18.14-12.228-12.228-18.14-26.469-18.14-43.802 0-18.005 5.777-32.784 17.6-45.146 11.824-12.228 26.201-18.14 43.802-18.14 17.332 0 31.709 5.912 43.937 18.14 12.495 12.227 18.407 26.737 18.407 44.472l0.003 0.004zM593.865 478l-49.041-118.238h-28.215l72.152 172.25h9.941l73.227-172.25h-28.082L593.865 478z m192.944-92.575v-25.664H686.037v168.355h100.1v-25.797h-74.168v-51.997h74.168v-25.529h-74.168v-39.367l74.84-0.001z" fill="#cdcdcd" p-id="13319"></path></svg>