<?xml version="1.0" standalone="no"?><!DOCTYPE svg PUBLIC "-//W3C//DTD SVG 1.1//EN" "http://www.w3.org/Graphics/SVG/1.1/DTD/svg11.dtd"><svg t="1507587127346" class="icon" style="" viewBox="0 0 1110 1024" version="1.1" xmlns="http://www.w3.org/2000/svg" p-id="14984" xmlns:xlink="http://www.w3.org/1999/xlink" width="138.75" height="128"><defs><style type="text/css"></style></defs><path d="M554.655857 1023.999991c-3.327762 0-6.612307-0.777918-9.680763-2.290538C357.885706 928.186368 0 582.099092 0 320.113444 0 85.268506 191.454375 0 320.113444 0c107.352747 0 198.369206 80.51456 234.585631 117.59534C590.829065 80.51456 681.845525 0 789.155053 0c128.702286 0 320.113444 85.268506 320.113444 320.113444 0 261.94243-357.799271 607.986489-544.931877 701.59601C561.311382 1023.26529 557.98362 1023.999991 554.655857 1023.999991zM320.113444 43.217692C208.827887 43.217692 43.217692 116.990292 43.217692 320.113444c0 245.433272 347.772766 570.214226 511.438166 657.946141 163.665399-87.731914 511.394948-412.556087 511.394948-657.946141C1066.050805 116.990292 900.44061 43.217692 789.155053 43.217692c-116.08272 0-216.909595 118.935088-217.903602 120.145183-8.168144 9.853634-24.936608 9.853634-33.191187 0C537.066257 162.15278 436.196164 43.217692 320.113444 43.217692z" p-id="14985" fill="#8a8a8a"></path></svg>