<?xml version="1.0" standalone="no"?><!DOCTYPE svg PUBLIC "-//W3C//DTD SVG 1.1//EN" "http://www.w3.org/Graphics/SVG/1.1/DTD/svg11.dtd"><svg t="1506408721919" class="icon" style="" viewBox="0 0 1024 1024" version="1.1" xmlns="http://www.w3.org/2000/svg" p-id="30610" xmlns:xlink="http://www.w3.org/1999/xlink" width="200" height="200"><defs><style type="text/css"></style></defs><path d="M874.4 129.2C777.2 46.4 648.8 0.4 512 0.4 229.6 0.4 0 196.8 0 438c0 132.4 72 257.2 197.2 342 13.6 9.2 32.8 5.2 42-8 4.4-6.8 6.4-14.8 4.8-22.8-1.6-8-6-14.8-12.8-19.2-108.4-73.6-170.8-180-170.8-292 0-208 202.4-376.8 451.6-376.8s451.6 169.2 451.6 376.8-202.4 376.8-451.6 376.8c-0.4 0-1.2 0.4-2.4 0.4-0.8 0.4-2 0.4-2.8 0.8l-1.2 0.4-1.2-0.4c-14.8-2.8-28.8 5.6-34 18.8-10 28.8-81.6 71.6-112 88.8l-14.8 8.4 4.8-16.4c19.2-64.4 10.4-77.6 4.8-85.6-6.4-9.6-17.2-15.6-29.2-15.6-16.8 0-30.4 13.6-30.4 30.4 0 5.2 1.2 10.4 4 15.2l1.2 2-0.4 2.4c-4 22-20.4 72.4-38.8 116.8-4.8 11.6-2 24.4 6.8 33.2 8.8 8.4 22 10.8 33.2 6 38.8-17.2 168.8-78.4 214.4-143.2l2-2.8 3.6 0c277.6-4 503.2-200 503.2-437.2C1024 321.6 970.8 212 874.4 129.2z" p-id="30611" fill="#ffffff"></path><path d="M779.2 434.8c0-36.8-30-66.8-66.8-66.8-36.8 0-66.8 30-66.8 66.8 0 36.8 30 66.8 66.8 66.8C749.6 501.2 779.2 471.2 779.2 434.8z" p-id="30612" fill="#ffffff"></path><path d="M313.2 501.2c36.8 0 66.8-30 66.8-66.8 0-36.8-30-66.8-66.8-66.8-36.8 0-66.8 30-66.8 66.8C246.4 471.2 276.4 501.2 313.2 501.2z" p-id="30613" fill="#ffffff"></path><path d="M512.8 501.2c36.8 0 66.8-30 66.8-66.8 0-36.8-30-66.8-66.8-66.8-36.8 0-66.8 30-66.8 66.8C446.4 471.2 476.4 501.2 512.8 501.2z" p-id="30614" fill="#ffffff"></path></svg>