<?xml version="1.0" standalone="no"?><!DOCTYPE svg PUBLIC "-//W3C//DTD SVG 1.1//EN" "http://www.w3.org/Graphics/SVG/1.1/DTD/svg11.dtd"><svg t="1506480715275" class="icon" style="" viewBox="0 0 1028 1024" version="1.1" xmlns="http://www.w3.org/2000/svg" p-id="12246" xmlns:xlink="http://www.w3.org/1999/xlink" width="200.78125" height="200"><defs><style type="text/css"></style></defs><path d="M906.649269 135.236054l-785.89916 0c-66.581418 0-120.750131 54.168714-120.750131 120.750131l0 511.653099c0 66.581418 54.168714 120.750131 120.750131 120.750131l785.89916 0c66.581418 0 120.750131-54.168714 120.750131-120.750131l0-511.653099C1027.3994 189.404768 973.230686 135.236054 906.649269 135.236054zM906.649269 851.550393l-785.89916 0c-46.26879 0-83.911108-37.642319-83.911108-83.911108l0-511.653099c0-46.26879 37.642319-83.911108 83.911108-83.911108l785.89916 0c46.26879 0 83.911108 37.642319 83.911108 83.911108l0 132.502803-375.97293 0c-66.581418 0-120.750131 54.168714-120.750131 120.750131l0 25.060769c0 66.581418 54.168714 120.750131 120.750131 120.750131l375.97293 0 0 112.589264C990.560377 813.908074 952.918058 851.550393 906.649269 851.550393zM990.188917 425.328012l0 192.882985L614.587446 618.210997c-46.26879 0-83.911108-37.642319-83.911108-83.911108l0-25.060769c0-46.26879 37.642319-83.911108 83.911108-83.911108L990.188917 425.328012z" p-id="12247" fill="#cdcdcd"></path><path d="M848.830422 576.899102c30.093389 0 54.489008-24.394596 54.489008-54.487985 0-30.093389-24.39562-54.489008-54.489008-54.489008-30.092365 0-54.487985 24.39562-54.487985 54.489008C794.342437 552.503483 835.110956 576.899102 848.830422 576.899102z" p-id="12248" fill="#cdcdcd"></path></svg>