<?xml version="1.0" standalone="no"?><!DOCTYPE svg PUBLIC "-//W3C//DTD SVG 1.1//EN" "http://www.w3.org/Graphics/SVG/1.1/DTD/svg11.dtd"><svg t="1506559392545" class="icon" style="" viewBox="0 0 1024 1024" version="1.1" xmlns="http://www.w3.org/2000/svg" p-id="21123" xmlns:xlink="http://www.w3.org/1999/xlink" width="200" height="200"><defs><style type="text/css"></style></defs><path d="M221.184053 418.534282c-51.625798 0-93.475951 41.847084-93.475951 93.476975 0 51.626821 41.850154 93.456508 93.475951 93.456508 51.607378 0 93.456508-41.829687 93.456508-93.456508C314.640562 460.381365 272.791431 418.534282 221.184053 418.534282zM512.000512 418.534282c-51.647287 0-93.476975 41.847084-93.476975 93.476975 0 51.626821 41.829687 93.456508 93.476975 93.456508 51.607378 0 93.476975-41.829687 93.476975-93.456508C605.476463 460.381365 563.606867 418.534282 512.000512 418.534282zM802.814923 418.534282c-51.647287 0-93.476975 41.847084-93.476975 93.476975 0 51.626821 41.829687 93.456508 93.476975 93.456508 51.627844 0 93.476975-41.829687 93.476975-93.456508C896.291898 460.381365 854.442768 418.534282 802.814923 418.534282z" p-id="21124" fill="#707070"></path></svg>