<?xml version="1.0" standalone="no"?><!DOCTYPE svg PUBLIC "-//W3C//DTD SVG 1.1//EN" "http://www.w3.org/Graphics/SVG/1.1/DTD/svg11.dtd"><svg t="1506404835634" class="icon" style="" viewBox="0 0 1024 1024" version="1.1" xmlns="http://www.w3.org/2000/svg" p-id="10754" xmlns:xlink="http://www.w3.org/1999/xlink" width="128" height="128"><defs><style type="text/css"></style></defs><path d="M232.727425 512c0-64.279425-52.085124-116.362876-116.362876-116.362876S0 447.720575 0 512s52.085124 116.362876 116.362876 116.362876 116.364549-52.083451 116.364549-116.362876z m-186.182275 0c0-38.538876 31.27885-69.817725 69.817726-69.817725s69.817725 31.27885 69.817725 69.817725c0 38.538876-31.27885 69.817725-69.817725 69.817725S46.54515 550.538876 46.54515 512zM1024 512c0-64.279425-52.085124-116.362876-116.362876-116.362876S791.272575 447.720575 791.272575 512s52.085124 116.362876 116.362876 116.362876S1024 576.279425 1024 512z m-186.182275 0c0-38.538876 31.27885-69.817725 69.817726-69.817725 38.538876 0 69.817725 31.27885 69.817725 69.817725 0 38.538876-31.27885 69.817725-69.817725 69.817725-38.538876 0-69.817725-31.27885-69.817726-69.817725zM628.362876 512c0-64.279425-52.085124-116.362876-116.362876-116.362876S395.637124 447.720575 395.637124 512s52.085124 116.362876 116.362876 116.362876 116.362876-52.083451 116.362876-116.362876z m-186.180601 0c0-38.538876 31.27885-69.817725 69.817725-69.817725s69.817725 31.27885 69.817725 69.817725c0 38.538876-31.27885 69.817725-69.817725 69.817725S442.182275 550.538876 442.182275 512z" fill="#ffffff" p-id="10755"></path></svg>