<?xml version="1.0" standalone="no"?><!DOCTYPE svg PUBLIC "-//W3C//DTD SVG 1.1//EN" "http://www.w3.org/Graphics/SVG/1.1/DTD/svg11.dtd"><svg t="1506404811190" class="icon" style="" viewBox="0 0 1072 1024" version="1.1" xmlns="http://www.w3.org/2000/svg" p-id="10551" xmlns:xlink="http://www.w3.org/1999/xlink" width="134" height="128"><defs><style type="text/css"></style></defs><path d="M536.380952 243.809524a121.904762 121.904762 0 1 0 0-243.809524 121.904762 121.904762 0 0 0 0 243.809524z m0-195.047619a73.142857 73.142857 0 1 1-0.048762 146.334476A73.142857 73.142857 0 0 1 536.380952 48.761905zM121.904762 243.809524a121.904762 121.904762 0 1 0 0-243.809524 121.904762 121.904762 0 0 0 0 243.809524z m0-195.047619a73.142857 73.142857 0 1 1-0.048762 146.334476A73.142857 73.142857 0 0 1 121.904762 48.761905zM950.857143 1024a121.904762 121.904762 0 1 0 0-243.809524 121.904762 121.904762 0 0 0 0 243.809524z m0-195.047619a73.142857 73.142857 0 1 1-0.048762 146.334476A73.142857 73.142857 0 0 1 950.857143 828.952381zM121.904762 633.904762a121.904762 121.904762 0 1 0 0-243.809524 121.904762 121.904762 0 0 0 0 243.809524z m0-195.047619a73.142857 73.142857 0 1 1-0.048762 146.334476A73.142857 73.142857 0 0 1 121.904762 438.857143zM950.857143 243.809524a121.904762 121.904762 0 1 0 0-243.809524 121.904762 121.904762 0 0 0 0 243.809524z m0-195.047619a73.142857 73.142857 0 1 1-0.048762 146.334476A73.142857 73.142857 0 0 1 950.857143 48.761905zM536.380952 633.904762a121.904762 121.904762 0 1 0 0-243.809524 121.904762 121.904762 0 0 0 0 243.809524z m0-195.047619a73.142857 73.142857 0 1 1-0.048762 146.334476A73.142857 73.142857 0 0 1 536.380952 438.857143zM950.857143 633.904762a121.904762 121.904762 0 1 0 0-243.809524 121.904762 121.904762 0 0 0 0 243.809524z m0-195.047619a73.142857 73.142857 0 1 1-0.048762 146.334476A73.142857 73.142857 0 0 1 950.857143 438.857143zM536.380952 1024a121.904762 121.904762 0 1 0 0-243.809524 121.904762 121.904762 0 0 0 0 243.809524z m0-195.047619a73.142857 73.142857 0 1 1-0.048762 146.334476A73.142857 73.142857 0 0 1 536.380952 828.952381zM121.904762 1024a121.904762 121.904762 0 1 0 0-243.809524 121.904762 121.904762 0 0 0 0 243.809524z m0-195.047619a73.142857 73.142857 0 1 1-0.048762 146.334476A73.142857 73.142857 0 0 1 121.904762 828.952381z" fill="#ffffff" p-id="10552"></path></svg>