<?xml version="1.0" standalone="no"?><!DOCTYPE svg PUBLIC "-//W3C//DTD SVG 1.1//EN" "http://www.w3.org/Graphics/SVG/1.1/DTD/svg11.dtd"><svg t="1506480475358" class="icon" style="" viewBox="0 0 1024 1024" version="1.1" xmlns="http://www.w3.org/2000/svg" p-id="11470" xmlns:xlink="http://www.w3.org/1999/xlink" width="200" height="200"><defs><style type="text/css"></style></defs><path d="M422.631088 645.975341l133.975341 0 0 134.063345L422.631088 780.038686 422.631088 645.975341zM243.915777 422.588621l134.063345 0L377.979122 288.611234l-134.063345 0L243.915777 422.588621zM243.915777 601.323375l134.063345 0L377.979122 467.348034l-134.063345 0L243.915777 601.323375zM422.631088 601.323375l133.975341 0L556.606429 467.348034 422.631088 467.348034 422.631088 601.323375zM243.915777 780.038686l134.063345 0L377.979122 645.975341l-134.063345 0L243.915777 780.038686zM601.345376 780.038686 735.320717 780.038686 735.320717 645.975341 601.345376 645.975341 601.345376 780.038686zM646.019855 377.936655l133.952828 0L779.972683 243.961314 646.019855 243.961314 646.019855 377.936655zM958.709483 243.961314 958.709483 780.038686c0 98.639554-79.989799 178.715311-178.7368 178.715311L243.915777 958.753997c-98.637508 0-178.627307-80.075757-178.627307-178.715311L65.28847 243.961314c0-98.727559 79.989799-178.715311 178.627307-178.715311l536.056905 0C878.719684 65.246003 958.709483 145.234779 958.709483 243.961314zM869.384062 288.611234c0-73.990155-60.051701-134.063345-134.063345-134.063345L288.567743 154.547889c-74.011644 0-133.975341 60.07319-133.975341 134.063345l0 446.775486c0 73.990155 59.963697 133.977387 133.975341 133.977387L735.320717 869.364107c74.011644 0 134.063345-59.987233 134.063345-133.977387L869.384062 288.611234zM601.345376 601.323375 735.320717 601.323375 735.320717 467.348034 601.345376 467.348034 601.345376 601.323375zM422.631088 422.588621l133.975341 0L556.606429 288.611234 422.631088 288.611234 422.631088 422.588621z" p-id="11471" fill="#cdcdcd"></path></svg>