<?xml version="1.0" standalone="no"?><!DOCTYPE svg PUBLIC "-//W3C//DTD SVG 1.1//EN" "http://www.w3.org/Graphics/SVG/1.1/DTD/svg11.dtd"><svg t="1507586950939" class="icon" style="" viewBox="0 0 1024 1024" version="1.1" xmlns="http://www.w3.org/2000/svg" p-id="9823" xmlns:xlink="http://www.w3.org/1999/xlink" width="128" height="128"><defs><style type="text/css"></style></defs><path d="M848.327 498.05c3.163 7.874 5.006 16.408 5.006 25.396v318.578c0 37.706-30.56 68.266-68.266 68.266H238.933c-37.706 0-68.266-30.56-68.266-68.266V523.446c0-9.011 1.843-17.544 5.006-25.395-29.036-7.85-50.517-34.088-50.517-65.627V318.646c0-37.706 30.56-68.267 68.266-68.267h263.35l-97.485-97.484c-8.965-8.966-8.965-23.484 0-32.45 8.989-8.988 23.507-8.988 32.495 0l113.642 113.641c4.3 4.301 6.417 9.922 6.576 15.565 0.182-5.643 2.276-11.241 6.576-15.565l113.642-113.64c8.988-8.99 23.506-8.99 32.495 0 8.965 8.965 8.965 23.483 0 32.449l-97.485 97.484h263.35c37.706 0 68.266 30.561 68.266 68.267v113.778c0 31.539-21.458 57.776-50.517 65.627z m-86.016 366.73c25.122 0 45.511-20.39 45.511-45.512V546.202c0-25.123-20.389-45.512-45.51-45.512H534.755v364.09H762.31z m-546.133-45.512c0 25.122 20.389 45.511 45.51 45.511h227.556V500.69H261.69c-25.122 0-45.511 20.39-45.511 45.512v273.066z m0-523.378c-25.122 0-45.511 20.39-45.511 45.512v68.266c0 25.122 20.389 45.511 45.51 45.511h273.067V295.89H216.178z m637.155 45.512c0-25.123-20.389-45.512-45.51-45.512H534.755v159.29h273.066c25.122 0 45.511-20.39 45.511-45.512v-68.266z" p-id="9824" fill="#8a8a8a"></path></svg>