<?xml version="1.0" standalone="no"?><!DOCTYPE svg PUBLIC "-//W3C//DTD SVG 1.1//EN" "http://www.w3.org/Graphics/SVG/1.1/DTD/svg11.dtd"><svg t="1507586706077" class="icon" style="" viewBox="0 0 1448 1024" version="1.1" xmlns="http://www.w3.org/2000/svg" p-id="5787" xmlns:xlink="http://www.w3.org/1999/xlink" width="181" height="128"><defs><style type="text/css"></style></defs><path d="M723.147321 7.396607C444.82849 7.396607 218.45792 233.767176 218.45792 512.086007c0 278.318831 226.370569 504.6894 504.689401 504.6894 278.318831 0 504.6894-226.370569 504.6894-504.6894 0-278.318831-226.370569-504.6894-504.6894-504.6894z m0 962.07492c-252.172686 0-457.38552-205.212834-457.38552-457.38552 0-252.172686 205.212834-457.38552 457.38552-457.38552s457.38552 205.212834 457.38552 457.38552c0 252.172686-205.212834 457.38552-457.38552 457.38552z" p-id="5788" fill="#8a8a8a"></path><path d="M896.537544 526.707206c17.373425 0 31.478582-14.105157 31.478582-31.478582 0-17.373425-14.105157-31.478582-31.478582-31.478582h-141.911641v-16.857383l146.90005-146.90005c12.385016-12.385016 12.385016-32.338653 0-44.551655-12.385016-12.385016-32.338653-12.385016-44.551654 0l-133.826978 133.826978-133.826978-133.826978c-12.385016-12.385016-32.338653-12.385016-44.551655 0-12.385016 12.385016-12.385016 32.338653 0 44.551655l146.90005 146.90005v16.857383h-141.911641c-17.373425 0-31.478582 14.105157-31.478582 31.478582 0 17.373425 14.105157 31.478582 31.478582 31.478582h141.911641v72.761969h-141.911641c-17.373425 0-31.478582 14.105157-31.478582 31.478582 0 17.373425 14.105157 31.478582 31.478582 31.478583h141.911641V746.54124c0 17.373425 14.105157 31.478582 31.478583 31.478582 17.373425 0 31.478582-14.105157 31.478582-31.478582v-83.942886h141.911641c17.373425 0 31.478582-14.105157 31.478582-31.478582 0-17.373425-14.105157-31.478582-31.478582-31.478583h-141.911641v-72.761968c0.172014-0.172014 141.911641-0.172014 141.911641-0.172015m0 0" p-id="5789" fill="#8a8a8a"></path></svg>