<?xml version="1.0" standalone="no"?><!DOCTYPE svg PUBLIC "-//W3C//DTD SVG 1.1//EN" "http://www.w3.org/Graphics/SVG/1.1/DTD/svg11.dtd"><svg t="1506671282075" class="icon" style="" viewBox="0 0 1024 1024" version="1.1" xmlns="http://www.w3.org/2000/svg" p-id="84128" xmlns:xlink="http://www.w3.org/1999/xlink" width="200" height="200"><defs><style type="text/css"></style></defs><path d="M512 1021.7244444444444C231.65155555555555 1021.7244444444444 2.27555555555557 792.3484444444443 2.27555555555557 512S231.65155555555555 2.27555555555557 512 2.27555555555557s509.72444444444443 229.37599999999998 509.72444444444443 509.72444444444443-229.37599999999998 509.72444444444443-509.72444444444443 509.72444444444443z m0-946.6311111111112c-240.29866666666663 0-436.9066666666667 196.60800000000003-436.9066666666667 436.9066666666667s196.60800000000003 436.9066666666667 436.9066666666667 436.9066666666667 436.9066666666667-196.60800000000003 436.9066666666667-436.9066666666667-196.60800000000003-436.9066666666667-436.9066666666667-436.9066666666667z" p-id="84129" fill="#bfbfbf"></path><path d="M512 839.6800000000001c-20.02488888888889 0-36.40888888888889-16.384-36.40888888888889-36.40888888888889V475.5911111111111c0-20.02488888888889 16.384-36.40888888888889 36.40888888888889-36.40888888888889s36.40888888888889 16.384 36.40888888888889 36.40888888888889v327.68c0 20.02488888888889-16.384 36.40888888888889-36.40888888888889 36.40888888888889z" p-id="84130" fill="#bfbfbf"></path><path d="M694.0444444444444 694.0444444444444H329.95555555555563c-20.02488888888889 0-36.40888888888889-16.384-36.40888888888889-36.40888888888889s16.384-36.40888888888889 36.40888888888889-36.40888888888889h364.08888888888885c20.02488888888889 0 36.40888888888889 16.384 36.40888888888889 36.40888888888889s-16.384 36.40888888888889-36.40888888888889 36.40888888888889z m0-182.04444444444442H329.95555555555563c-20.02488888888889 0-36.40888888888889-16.384-36.40888888888889-36.40888888888889s16.384-36.40888888888889 36.40888888888889-36.40888888888889h364.08888888888885c20.02488888888889 0 36.40888888888889 16.384 36.40888888888889 36.40888888888889s-16.384 36.40888888888889-36.40888888888889 36.40888888888889z" p-id="84131" fill="#bfbfbf"></path><path d="M512 512c-9.102222222222222 0-18.204444444444444-3.640888888888889-25.48622222222222-10.922666666666666L306.2897777777778 320.85333333333335c-14.563555555555556-14.563555555555556-14.563555555555556-36.40888888888889 0-50.97244444444444 14.563555555555556-14.563555555555556 36.40888888888889-14.563555555555556 50.97244444444444 0l180.22400000000002 180.22400000000002c14.563555555555556 14.563555555555556 14.563555555555556 36.40888888888889 0 50.97244444444444-7.281777777777778 7.281777777777778-16.384 10.922666666666666-25.48622222222222 10.922666666666666z" p-id="84132" fill="#bfbfbf"></path><path d="M512 512c-9.102222222222222 0-18.204444444444444-3.640888888888889-25.48622222222222-10.922666666666666-14.563555555555556-14.563555555555556-14.563555555555556-36.40888888888889 0-50.97244444444444L666.7377777777778 269.8808888888889c14.563555555555556-14.563555555555556 36.40888888888889-14.563555555555556 50.97244444444444 0 14.563555555555556 14.563555555555556 14.563555555555556 36.40888888888889 0 50.97244444444444L537.4862222222222 501.07733333333334C530.2044444444444 508.35911111111113 521.1022222222222 512 512 512z" p-id="84133" fill="#bfbfbf"></path></svg>