<?xml version="1.0" standalone="no"?><!DOCTYPE svg PUBLIC "-//W3C//DTD SVG 1.1//EN" "http://www.w3.org/Graphics/SVG/1.1/DTD/svg11.dtd"><svg t="1506671638839" class="icon" style="" viewBox="0 0 1024 1024" version="1.1" xmlns="http://www.w3.org/2000/svg" p-id="11202" xmlns:xlink="http://www.w3.org/1999/xlink" width="200" height="200"><defs><style type="text/css"></style></defs><path d="M879.744 782.976c-4.864-1.344-13.696-3.136-22.08-6.144-40.064-14.272-82.432 15.552-81.344 57.856 0.192 7.552 2.112 15.36 4.8 22.528 11.584 31.296 1.024 61.376-28.16 77.888a477.952 477.952 0 0 1-106.944 44.288c-31.744 8.96-60.992-5.12-74.624-35.84-15.168-34.048-54.336-47.424-86.208-29.184a62.336 62.336 0 0 0-26.176 30.4c-11.008 25.216-35.072 40.256-61.696 36.864-12.928-1.6-25.536-6.144-38.016-10.24a461.632 461.632 0 0 1-80.704-35.904c-29.824-16.768-40.384-46.656-28.352-78.72 9.28-24.704 5.056-47.36-13.696-65.92-18.432-18.176-40.832-22.144-64.96-13.12-32.64 12.032-62.208 1.6-79.168-28.608a485.376 485.376 0 0 1-43.776-105.792 60.48 60.48 0 0 1 34.88-74.56c19.072-8.384 31.744-22.272 36.416-42.688a59.712 59.712 0 0 0-35.392-69.376c-18.368-8.064-30.912-21.056-36.48-40.448a58.56 58.56 0 0 1-0.064-32.192 481.344 481.344 0 0 1 44.672-108.8c16.512-29.44 46.72-40.256 78.336-28.16 37.248 14.272 75.968-7.168 82.944-46.272a59.52 59.52 0 0 0-3.712-32.64c-12.352-31.872-1.536-61.888 28.352-78.72A481.088 481.088 0 0 1 386.176 45.184a60.48 60.48 0 0 1 72.896 35.136c9.152 20.672 24.32 33.856 46.784 37.376 28.672 4.48 53.76-9.6 65.472-36.352 8.64-19.584 22.656-32.96 43.712-36.8 9.536-1.728 20.288-1.472 29.696 0.96a447.616 447.616 0 0 1 108.16 44.352c29.184 16.448 40 46.656 28.032 77.824-15.168 39.424 8.896 79.488 50.88 83.52 8.832 0.832 18.496-0.896 26.944-3.904 33.984-12.096 62.912-1.856 80.512 29.632 18.176 32.64 32.32 66.944 42.624 102.912 9.6 33.6-3.712 62.528-35.584 76.864-38.656 17.344-49.472 65.6-21.184 96.192 5.952 6.4 13.888 11.712 21.824 15.424 30.848 14.4 44.416 43.2 35.072 76.16a471.36 471.36 0 0 1-44.992 107.328c-11.776 20.352-29.824 30.336-57.28 31.168z m44.608-383.36c-8.96-32.896-21.952-64-38.4-93.824-2.048-3.776-4.288-1.92-6.784-1.088-22.784 8.192-46.08 10.048-69.76 4.416A120.768 120.768 0 0 1 723.2 149.504c1.728-4.864 0.832-7.04-3.648-9.088-18.112-8.128-35.904-17.088-54.208-24.704-12.032-5.056-24.768-8.448-36.8-12.48-23.296 48.128-59.968 75.584-113.024 75.584-53.312 0-90.048-27.584-113.024-75.2a414.72 414.72 0 0 0-96.32 39.936c17.344 49.984 11.008 95.488-26.752 133.12-37.696 37.568-83.2 44.096-132.928 26.56-17.344 30.72-30.784 62.72-39.872 96.384 47.36 22.848 74.816 59.2 75.136 112.064 0.32 53.632-27.2 90.56-75.2 113.792 9.28 33.856 22.656 66.048 40 96.384 48.192-16.96 92.48-11.52 129.728 23.488 40.32 37.76 47.68 84.352 29.888 136.128 30.592 17.344 62.656 30.848 96.384 39.872 23.232-47.808 59.904-75.2 112.96-75.136 53.376 0 89.984 27.776 112.896 75.2a419.2 419.2 0 0 0 96.32-39.936c-17.472-49.984-10.88-95.296 26.496-132.864 37.632-37.76 83.136-44.16 133.184-26.816a414.08 414.08 0 0 0 39.872-96.384c-48.192-23.36-75.648-60.48-75.136-114.112 0.448-52.544 27.776-88.768 75.2-111.68z m0 0" p-id="11203" fill="#ffffff"></path><path d="M515.52 300.032c26.688 0.32 52.416 5.504 77.248 15.232 16.64 6.464 24.448 23.296 18.496 39.232-6.016 16.192-23.232 23.808-40.256 17.216a151.36 151.36 0 0 0-196.48 85.184c-36.16 91.328 23.872 193.472 120.96 205.888a151.68 151.68 0 0 0 170.88-136.448 152.96 152.96 0 0 0-10.176-69.568 30.016 30.016 0 0 1 15.744-39.424 30.08 30.08 0 0 1 40.32 16.96c13.44 33.28 18.752 67.904 13.568 103.36-12.736 86.976-60.672 146.88-143.552 175.744-123.904 43.072-257.408-39.744-276.48-169.472-17.088-116.416 63.232-224.768 179.072-241.28 10.112-1.472 20.48-1.792 30.656-2.624z m0 0" p-id="11204" fill="#ffffff"></path></svg>