<?xml version="1.0" standalone="no"?><!DOCTYPE svg PUBLIC "-//W3C//DTD SVG 1.1//EN" "http://www.w3.org/Graphics/SVG/1.1/DTD/svg11.dtd"><svg t="1506667413275" class="icon" style="" viewBox="0 0 1024 1024" version="1.1" xmlns="http://www.w3.org/2000/svg" p-id="10894" xmlns:xlink="http://www.w3.org/1999/xlink" width="200" height="200"><defs><style type="text/css"></style></defs><path d="M778.95347 1004.485551c-5.823636 0-11.649318 0-17.472953 0-12.078083-5.164626-24.709775-9.324366-36.137035-15.661701-68.017116-37.712927-135.792733-75.857688-203.51309-114.099664-5.748934-3.247974-10.048867-3.28072-15.783475-0.017396-41.789779 23.778566-83.414805 47.892777-125.802194 70.570265-37.706787 20.173458-72.528873 45.972031-113.842815 59.207473-5.824659 0-11.649318 0-17.473977 0-2.105964-0.722454-4.168949-1.635243-6.327102-2.140757-36.148291-8.470929-59.876716-42.643216-54.135968-79.345116 13.727653-87.767949 27.767414-175.48678 42.067095-263.162632 1.038656-6.374174-0.521886-10.171664-4.668323-14.437827-22.547529-23.199375-44.86072-46.6249-67.275219-69.952188-37.655621-39.191604-75.429946-78.269621-112.950492-117.590162-19.548218-20.48659-25.203008-45.062312-17.140379-71.814606 7.77508-25.795503 25.808806-42.090631 52.208059-48.257074 9.725502-2.272763 19.745716-3.292999 29.641087-4.824889 72.788793-11.269671 145.558144-22.661116 218.396055-33.600259 8.433066-1.266853 12.487406-5.157463 15.906272-12.621459 34.574447-75.474972 69.579705-150.751423 104.310717-226.154763 7.143701-15.509229 17.379832-28.115338 32.742728-35.731806 7.427156-3.681856 15.642259-5.773494 23.50125-8.582469 5.823636 0 11.649318 0 17.472953 0 32.837896 6.656607 50.04172 28.931936 63.044872 58.253752 31.82073 71.750137 65.563228 142.645814 98.333586 213.978443 2.799766 6.093788 6.051833 9.339716 13.21293 10.420327 77.942163 11.762905 155.770739 24.275893 233.737462 35.867906 24.406876 3.628644 45.680389 11.389398 59.876716 32.893154 19.150152 29.002544 15.030321 65.587787-10.620895 92.315522-59.364039 61.856813-118.838595 123.608226-178.033789 185.630814-2.863211 2.99931-5.430686 8.463766-4.835122 12.262278 13.423731 85.527932 26.714432 171.083493 41.337477 256.408811 8.405437 49.039903-21.255093 79.44847-49.691749 87.11508C785.648962 1002.331491 782.31503 1003.458151 778.95347 1004.485551zM769.575892 932.519496c-0.196475-4.233418-0.058328-7.072069-0.496304-9.8176-13.580297-84.839247-26.979468-169.71124-40.981367-254.482949-4.516874-27.340695 2.39863-50.117444 21.661346-70.022797 58.491159-60.439534 116.635417-121.216759 174.891216-181.88449 2.51631-2.62171 4.800329-5.465478 8.112772-9.255805-82.09474-12.755512-162.096818-25.8876-242.342444-37.316907-33.130561-4.716418-55.631018-19.784602-69.536726-50.780547-33.180703-73.967642-67.796082-147.291624-101.850689-220.865293-1.401929-3.025916-2.99931-5.958712-5.177929-10.266831-2.298346 4.748141-3.880377 7.887644-5.354961 11.076266-34.846646 75.343989-69.726038 150.673651-104.496959 226.052432-10.474562 22.708188-27.474748 37.986149-52.150754 42.058908-63.1032 10.414187-126.378316 19.778462-189.5818 29.588899-21.837354 3.390213-43.663452 6.852058-67.470671 10.593266 3.942799 4.252861 6.459109 7.055696 9.064446 9.768481 58.497299 60.883649 116.931153 121.827673 175.551248 182.594665 17.371646 18.006096 25.015743 39.275515 21.167089 63.800072-11.618619 74.031087-23.846104 147.967006-35.780925 221.947951-2.449795 15.186887-4.66116 30.411637-7.286963 47.610344 5.002944-2.620687 8.117888-4.152577 11.142781-5.850242 68.772316-38.569434 137.647987-76.957743 206.240201-115.844401 26.319435-14.920828 51.697429-14.980179 78.037331-0.037862 68.301596 38.744419 136.891763 76.981279 205.377554 115.402333C761.616616 928.442644 765.016039 930.127006 769.575892 932.519496z" p-id="10895" fill="#bfbfbf"></path></svg>