<?xml version="1.0" standalone="no"?><!DOCTYPE svg PUBLIC "-//W3C//DTD SVG 1.1//EN" "http://www.w3.org/Graphics/SVG/1.1/DTD/svg11.dtd"><svg t="1507587109180" class="icon" style="" viewBox="0 0 1024 1024" version="1.1" xmlns="http://www.w3.org/2000/svg" p-id="14280" xmlns:xlink="http://www.w3.org/1999/xlink" width="128" height="128"><defs><style type="text/css"></style></defs><path d="M234.588425 1012.787135C225.753661 1012.787135 216.946506 1009.999053 209.492174 1004.533303 196.184812 994.761209 189.448305 978.087919 192.126343 961.55265L235.444293 656.961417 13.553685 442.693048C1.764797 431.071433-2.54215 413.597604 2.427404 397.642035 7.396959 381.658863 20.814756 369.982037 36.993417 367.470001L340.053416 321.370005 472.160737 43.74865C479.338984 28.676436 494.247646 19.069969 510.619569 18.987155L510.868047 18.987155C527.157142 18.987155 542.065807 28.427993 549.354486 43.306973L684.471149 319.410065 986.482022 362.114673C1002.715901 364.433476 1016.244132 375.972277 1021.406945 391.872635 1026.569762 407.772993 1022.428467 425.302033 1010.750013 437.089277L792.724613 653.81447 832.757135 954.65145C833.613005 958.10205 834.054741 961.745882 834.054741 965.500133 834.054741 989.819952 814.783915 1009.502167 791.040488 1009.529771L790.902443 1009.529771C784.110718 1009.529771 777.318994 1007.873485 771.079441 1004.588513L515.202601 862.451459 254.825556 1007.625039C248.475568 1011.075639 241.518192 1012.787135 234.588425 1012.787135L234.588425 1012.787135ZM56.236635 415.088261 274.179209 613.842736C284.946578 624.277347 289.94374 639.321955 287.486572 654.145727L245.714705 951.17325 492.149391 814.281103C505.373928 807.214278 521.193677 804.094935 534.501038 811.023739L775.248346 951.17325 740.73755 657.982792C738.114731 643.21423 742.946243 628.059201 753.603174 617.541779L965.05772 413.735625 668.651401 366.835091C653.825563 364.76473 640.959939 355.517128 634.223432 342.101201L509.818918 83.886011 395.463946 346.379943C388.893092 359.878683 376.137902 369.264312 361.339672 371.527905L56.236635 415.088261 56.236635 415.088261Z" p-id="14281" fill="#8a8a8a"></path></svg>