<?xml version="1.0" standalone="no"?><!DOCTYPE svg PUBLIC "-//W3C//DTD SVG 1.1//EN" "http://www.w3.org/Graphics/SVG/1.1/DTD/svg11.dtd"><svg t="1506480058369" class="icon" style="" viewBox="0 0 1024 1024" version="1.1" xmlns="http://www.w3.org/2000/svg" p-id="11169" xmlns:xlink="http://www.w3.org/1999/xlink" width="200" height="200"><defs><style type="text/css"></style></defs><path d="M484.864 98.816C478.72 104.96 444.928 158.72 409.6 218.112L346.112 326.144l-128 29.184c-147.456 33.28-154.624 36.352-152.064 77.824 0.512 9.216 96.768 125.952 163.328 197.632l12.8 13.824-6.656 75.776c-3.584 41.984-7.168 80.384-7.68 86.016-6.656 42.496-8.192 102.4-2.56 114.688 5.632 13.824 23.552 26.112 38.4 26.112 3.584 0 60.416-23.04 125.952-51.2 66.048-28.16 121.344-51.2 123.904-51.2s58.368 23.04 123.904 51.2c65.536 28.16 124.416 51.2 130.56 51.2 6.144 0 17.92-7.168 26.624-15.36 16.384-16.896 16.384-17.92 6.656-115.2-3.072-28.672-6.656-70.144-10.24-112.64-1.536-19.968-4.096-40.448-5.12-46.592-1.536-7.68 18.432-33.792 79.36-103.424 44.544-51.2 84.992-98.304 89.088-104.448 11.776-16.384 10.24-37.376-3.072-52.224-10.24-11.776-28.16-16.896-140.8-42.496L680.96 325.632l-64.512-109.568c-35.84-60.416-69.632-114.176-75.264-119.296-14.848-13.312-41.984-12.8-56.32 2.048z m41.984 3.584c10.24 5.12 15.872 13.824 92.672 142.336 52.736 89.088 58.368 95.232 89.6 101.376 5.632 1.024 25.088 5.12 43.52 9.728 18.432 4.096 65.536 14.848 104.96 23.552 39.424 8.704 75.776 19.456 80.896 23.552 4.608 4.608 8.704 14.848 8.704 22.528 0 15.872-1.024 16.896-94.72 124.928-36.864 41.984-69.632 80.384-73.216 84.992-5.12 6.656-4.096 29.696 4.096 117.76 13.312 142.336 13.312 166.4 0.512 173.568-17.408 9.216-28.672 6.144-109.056-28.672-43.008-18.432-92.16-38.912-109.056-46.08-16.896-7.168-34.816-15.36-40.448-17.92-7.168-4.096-14.336-3.584-28.16 2.56-10.24 4.096-42.496 17.92-72.192 30.72-29.696 12.288-75.264 32.256-101.888 43.52-50.176 21.504-70.656 25.6-81.408 14.848-8.192-8.192-7.68-65.536 1.536-157.696 4.096-40.96 7.68-87.04 7.68-102.4v-28.16l-84.48-97.28c-46.592-53.248-86.016-101.888-87.552-108.032-4.608-17.408 6.144-31.744 27.648-37.888 10.24-3.072 68.096-16.896 128-30.208 67.072-15.36 112.64-28.16 118.784-33.792 5.632-5.12 37.888-55.808 71.68-113.152C480.256 123.392 499.712 97.28 513.536 97.28c2.56 0 8.192 2.048 13.312 5.12z" fill="" p-id="11170"></path></svg>